<?xml version="1.0" encoding="utf-8"?>
<!-- Svg Vector Icons : http://www.onlinewebfonts.com/icon -->
<!DOCTYPE svg PUBLIC "-//W3C//DTD SVG 1.1//EN" "http://www.w3.org/Graphics/SVG/1.1/DTD/svg11.dtd">
<svg version="1.1" xmlns="http://www.w3.org/2000/svg" xmlns:xlink="http://www.w3.org/1999/xlink" x="0px" y="0px" viewBox="0 0 256 256" enable-background="new 0 0 256 256" xml:space="preserve">
<metadata> Svg Vector Icons : http://www.onlinewebfonts.com/icon </metadata>
<g><g><g><path fill="#000000" d="M20.1,18.9c-4.3,1.5-6.6,3.5-9,7.9L10,28.9v66.7v66.7l1.2,2.3c1.4,3,4.2,5.7,7.2,7.2l2.3,1.1H128h107.4l2.3-1.1c2.9-1.5,5.7-4.2,7.2-7.2l1.2-2.3V95.6V28.9l-1.2-2.4c-1.7-3.2-4.1-5.5-7.3-7l-2.6-1.2l-106.2-0.1C27.4,18.1,22.4,18.1,20.1,18.9z M70.3,47.4v6.2h1.8c5,0,15.1,3.5,14.6,5c-0.9,2.6-2.7,7.3-2.9,7.4c0,0.1-1.3-0.4-2.8-1c-6.7-3-14.4-3.7-19.5-2c-6,2.1-9.1,8.8-6.6,14.4c1.3,2.8,4.3,5.2,10.2,7.9c11.1,5.2,12.9,6.2,15.7,8.2c3.3,2.4,6.2,6.2,7.6,9.6c1.2,3,1.6,9.1,0.9,12.3c-1.7,8-8.1,14.3-16.9,16.7l-2.8,0.8l-0.1,6.6l-0.1,6.5h-3.9h-3.9v-6.5V133h-2c-2.5,0-7.4-1-11-2.3c-3-1.1-6.3-2.8-6.3-3.3c0-0.8,2.9-8.3,3.2-8.2c0.1,0.1,1.3,0.7,2.6,1.4c7.8,4.1,17.7,5,23.7,2.1c7.8-3.7,9.3-13.8,3-19.8c-2.5-2.4-5-3.8-11.6-6.7c-7.4-3.2-11.5-5.6-14.5-8.6c-5.9-5.9-7.1-14.6-3.1-22.5c2.5-4.9,8.3-9.2,14.6-10.7l2.4-0.6v-6.4v-6.4h3.9h3.9L70.3,47.4L70.3,47.4z M213.9,67.9v15.2h-49h-49V67.9V52.7h49h49L213.9,67.9L213.9,67.9z M213.9,98.9v3.7h-49h-49v-3.7v-3.7h49h49L213.9,98.9L213.9,98.9z M213.9,116.6c0,3.4,0,3.5-1.2,3.7c-0.7,0.1-22.8,0.2-49,0.2l-47.7,0v-3.6v-3.6h49h49L213.9,116.6L213.9,116.6z M213.9,134.4v3.7h-49h-49v-3.7v-3.7h49h49L213.9,134.4L213.9,134.4z"/><path fill="#000000" d="M83.7,203.2v11l-7.7,0.2c-8.6,0.2-9.9,0.6-12.9,3.7c-5.5,5.7-3.9,14.6,3.3,18.5l1.8,1l58.6,0.1c65.4,0.1,61.8,0.3,65.4-3c2.8-2.5,3.8-4.8,3.8-8.7c0-3.7-0.9-6-3.5-8.4c-3-2.9-4-3.1-12.5-3.3l-7.8-0.2v-11v-11H128H83.7V203.2z"/></g></g></g>
</svg>